<svg width="16" height="16" viewBox="0 0 16 16" fill="none" xmlns="http://www.w3.org/2000/svg">
<path fill-rule="evenodd" clip-rule="evenodd" d="M7.9999 1.91996C4.64201 1.91996 1.9199 4.64207 1.9199 7.99996C1.9199 11.3579 4.64201 14.08 7.9999 14.08C11.3578 14.08 14.0799 11.3579 14.0799 7.99996C14.0799 4.64207 11.3578 1.91996 7.9999 1.91996ZM0.9599 7.99996C0.9599 4.11188 4.11182 0.959961 7.9999 0.959961C11.888 0.959961 15.0399 4.11188 15.0399 7.99996C15.0399 11.888 11.888 15.04 7.9999 15.04C4.11182 15.04 0.9599 11.888 0.9599 7.99996Z" fill="black" fill-opacity="0.9"/>
<path fill-rule="evenodd" clip-rule="evenodd" d="M14.3999 8.42658H1.59987V7.57324H14.3999V8.42658Z" fill="black" fill-opacity="0.9"/>
<path fill-rule="evenodd" clip-rule="evenodd" d="M7.57318 14.3999V1.59993H8.42652V14.3999H7.57318Z" fill="black" fill-opacity="0.9"/>
<path fill-rule="evenodd" clip-rule="evenodd" d="M11.0666 7.99992C11.0666 5.68232 10.2332 3.38957 8.59922 1.8736L9.10707 1.32624C10.9221 3.01026 11.8132 5.51751 11.8132 7.99992C11.8132 10.4823 10.9221 12.9896 9.10707 14.6736L8.59922 14.1262C10.2332 12.6103 11.0666 10.3175 11.0666 7.99992Z" fill="black" fill-opacity="0.9"/>
<path fill-rule="evenodd" clip-rule="evenodd" d="M4.26628 7.99994C4.26627 5.52112 5.12832 3.01517 6.88813 1.33027L7.4045 1.8696C5.82202 3.38471 5.01294 5.67876 5.01295 7.99994C5.01295 10.3211 5.82204 12.6152 7.40451 14.1303L6.88814 14.6696C5.12834 12.9847 4.26629 10.4788 4.26628 7.99994Z" fill="black" fill-opacity="0.9"/>
<path fill-rule="evenodd" clip-rule="evenodd" d="M7.99989 4.22181C10.3138 4.22181 12.6669 4.6497 14.262 5.54071C14.442 5.64127 14.5064 5.8687 14.4058 6.04871C14.3053 6.22871 14.0778 6.29313 13.8978 6.19257C12.458 5.38826 10.2485 4.96848 7.99989 4.96848C5.75132 4.96848 3.54183 5.38826 2.10195 6.19257C1.92195 6.29313 1.69451 6.22871 1.59396 6.04871C1.49341 5.8687 1.55782 5.64127 1.73782 5.54071C3.33291 4.6497 5.68595 4.22181 7.99989 4.22181Z" fill="black" fill-opacity="0.9"/>
<path fill-rule="evenodd" clip-rule="evenodd" d="M7.99989 11.5732C10.3138 11.5732 12.6669 11.1454 14.262 10.2543C14.442 10.1538 14.5064 9.92635 14.4058 9.74634C14.3053 9.56634 14.0778 9.50193 13.8978 9.60248C12.458 10.4068 10.2485 10.8266 7.99989 10.8266C5.75132 10.8266 3.54183 10.4068 2.10195 9.60248C1.92195 9.50193 1.69451 9.56634 1.59396 9.74634C1.49341 9.92635 1.55782 10.1538 1.73782 10.2543C3.33291 11.1454 5.68595 11.5732 7.99989 11.5732Z" fill="black" fill-opacity="0.9"/>
</svg>
