<svg width="16" height="16" viewBox="0 0 16 16" fill="none" xmlns="http://www.w3.org/2000/svg">
<g opacity="0.9">
<path d="M11.2083 2L6.74825 6.46008C6.44221 6.37992 6.12263 6.33333 5.79167 6.33333C3.69758 6.33333 2 8.03092 2 10.125C2 12.2191 3.69758 13.9167 5.79167 13.9167C7.88575 13.9167 9.58333 12.2191 9.58333 10.125C9.58333 9.64238 9.48963 9.1825 9.3255 8.75783L10.6667 7.41667V5.79167H12.2917L13.9167 4.16667V2H11.2083Z" stroke="black" stroke-opacity="0.9" stroke-miterlimit="10" stroke-linecap="square" stroke-linejoin="round"/>
<path d="M5.79171 11.2082C6.39002 11.2082 6.87504 10.7231 6.87504 10.1248C6.87504 9.52653 6.39002 9.0415 5.79171 9.0415C5.1934 9.0415 4.70837 9.52653 4.70837 10.1248C4.70837 10.7231 5.1934 11.2082 5.79171 11.2082Z" stroke="black" stroke-opacity="0.9" stroke-miterlimit="10" stroke-linecap="square"/>
</g>
</svg>
