<svg width="17" height="16" viewBox="0 0 17 16" fill="none" xmlns="http://www.w3.org/2000/svg">
<path fill-rule="evenodd" clip-rule="evenodd" d="M1.46716 7.99973C1.46716 4.11569 4.61581 0.967041 8.49985 0.967041C12.3839 0.967041 15.5325 4.11569 15.5325 7.99973C15.5325 11.8837 12.3839 15.0324 8.49985 15.0324C4.61581 15.0324 1.46716 11.8837 1.46716 7.99973ZM8.49985 1.91704C5.14048 1.91704 2.41716 4.64036 2.41716 7.99973C2.41716 11.3591 5.14048 14.0824 8.49985 14.0824C11.8592 14.0824 14.5825 11.3591 14.5825 7.99973C14.5825 4.64036 11.8592 1.91704 8.49985 1.91704ZM9.29987 11.2C9.29987 11.6418 8.9417 12 8.49987 12C8.05804 12 7.69987 11.6418 7.69987 11.2C7.69987 10.7582 8.05804 10.4 8.49987 10.4C8.9417 10.4 9.29987 10.7582 9.29987 11.2ZM6.91665 6.66669C6.91665 5.92213 7.55839 5.21669 8.49999 5.21669C9.44158 5.21669 10.0833 5.92213 10.0833 6.66669C10.0833 7.21104 9.77998 7.48823 9.28109 7.7913C9.22428 7.82581 9.15937 7.86351 9.09031 7.90362L9.0903 7.90363C8.89537 8.01683 8.66738 8.14924 8.49528 8.28334C8.24043 8.48191 7.94999 8.79742 7.94999 9.28002C7.94999 9.58378 8.19623 9.83002 8.49999 9.83002C8.80374 9.83002 9.04999 9.58378 9.04999 9.28002L9.04994 9.27876C9.0498 9.27619 9.04969 9.27426 9.05624 9.26392C9.06857 9.24447 9.09946 9.20706 9.17136 9.15104C9.28158 9.06516 9.40524 8.99349 9.56756 8.8994L9.56757 8.89939L9.56769 8.89933C9.65116 8.85094 9.74486 8.79663 9.85221 8.73142C10.42 8.38649 11.1833 7.82367 11.1833 6.66669C11.1833 5.27792 10.0117 4.11669 8.49999 4.11669C6.98825 4.11669 5.81665 5.27792 5.81665 6.66669C5.81665 6.97045 6.0629 7.21669 6.36665 7.21669C6.67041 7.21669 6.91665 6.97045 6.91665 6.66669Z" fill="black" fill-opacity="0.4"/>
</svg>
