<svg width="16" height="16" viewBox="0 0 16 16" fill="none" xmlns="http://www.w3.org/2000/svg">
<path fill-rule="evenodd" clip-rule="evenodd" d="M4.36663 1.1001L4.34403 1.1001C4.03599 1.10009 3.77031 1.10008 3.55272 1.12076C3.32239 1.14266 3.09488 1.19122 2.88288 1.32114C2.68105 1.44482 2.51135 1.61452 2.38767 1.81635C2.25775 2.02835 2.20919 2.25586 2.18729 2.48619C2.1666 2.70378 2.16661 2.96946 2.16663 3.2775L2.16663 3.3001V12.7001L2.16663 12.7227C2.16661 13.0307 2.1666 13.2964 2.18729 13.514C2.20919 13.7443 2.25775 13.9718 2.38767 14.1838C2.51135 14.3857 2.68105 14.5554 2.88288 14.6791C3.09488 14.809 3.32239 14.8575 3.55272 14.8794C3.77031 14.9001 4.03599 14.9001 4.34404 14.9001H4.36663H11.6333H11.6559C11.9639 14.9001 12.2296 14.9001 12.4472 14.8794C12.6775 14.8575 12.905 14.809 13.117 14.6791C13.3189 14.5554 13.4886 14.3857 13.6123 14.1838C13.7422 13.9718 13.7907 13.7443 13.8126 13.514C13.8333 13.2964 13.8333 13.0307 13.8333 12.7227V12.7001V3.3001V3.27751C13.8333 2.96946 13.8333 2.70378 13.8126 2.48619C13.7907 2.25586 13.7422 2.02835 13.6123 1.81635C13.4886 1.61452 13.3189 1.44482 13.117 1.32114C12.905 1.19122 12.6775 1.14266 12.4472 1.12076C12.2296 1.10008 11.9639 1.10009 11.6559 1.1001L11.6333 1.1001H4.36663ZM3.40538 2.17378C3.43385 2.15633 3.49024 2.13121 3.64737 2.11627C3.81195 2.10063 4.0296 2.1001 4.36663 2.1001H11.6333C11.9703 2.1001 12.188 2.10063 12.3525 2.11627C12.5097 2.13121 12.5661 2.15633 12.5945 2.17378C12.6618 2.21501 12.7184 2.27157 12.7596 2.33885C12.7771 2.36732 12.8022 2.42371 12.8171 2.58085C12.8328 2.74542 12.8333 2.96307 12.8333 3.3001V12.7001C12.8333 13.0371 12.8328 13.2548 12.8171 13.4194C12.8022 13.5765 12.7771 13.6329 12.7596 13.6613C12.7184 13.7286 12.6618 13.7852 12.5945 13.8264C12.5661 13.8439 12.5097 13.869 12.3525 13.8839C12.188 13.8996 11.9703 13.9001 11.6333 13.9001H4.36663C4.0296 13.9001 3.81195 13.8996 3.64737 13.8839C3.49024 13.869 3.43385 13.8439 3.40538 13.8264C3.3381 13.7852 3.28153 13.7286 3.24031 13.6613C3.22286 13.6329 3.19774 13.5765 3.1828 13.4194C3.16715 13.2548 3.16663 13.0371 3.16663 12.7001V3.3001C3.16663 2.96308 3.16715 2.74542 3.1828 2.58085C3.19774 2.42371 3.22286 2.36732 3.24031 2.33885C3.28153 2.27157 3.3381 2.21501 3.40538 2.17378ZM5.33329 10.7001C5.05715 10.7001 4.83329 10.924 4.83329 11.2001C4.83329 11.4762 5.05715 11.7001 5.33329 11.7001H8.53329C8.80943 11.7001 9.03329 11.4762 9.03329 11.2001C9.03329 10.924 8.80943 10.7001 8.53329 10.7001H5.33329ZM4.83329 8.0001C4.83329 7.72396 5.05715 7.5001 5.33329 7.5001H10.6666C10.9428 7.5001 11.1666 7.72396 11.1666 8.0001C11.1666 8.27624 10.9428 8.5001 10.6666 8.5001H5.33329C5.05715 8.5001 4.83329 8.27624 4.83329 8.0001ZM5.33329 4.3001C5.05715 4.3001 4.83329 4.52396 4.83329 4.8001C4.83329 5.07624 5.05715 5.3001 5.33329 5.3001H10.6666C10.9428 5.3001 11.1666 5.07624 11.1666 4.8001C11.1666 4.52396 10.9428 4.3001 10.6666 4.3001H5.33329Z" fill="black" fill-opacity="0.9"/>
</svg>
