<svg width="16" height="16" viewBox="0 0 16 16" fill="none" xmlns="http://www.w3.org/2000/svg">
<path fill-rule="evenodd" clip-rule="evenodd" d="M15.7317 6.50942C15.9659 6.65577 16.0371 6.96425 15.8907 7.19842C15.4177 7.95528 14.8545 8.64277 14.2137 9.23995L15.5191 10.5454C15.7144 10.7407 15.7144 11.0572 15.5191 11.2525C15.3239 11.4478 15.0073 11.4478 14.812 11.2525L13.4444 9.88487C12.584 10.5317 11.6132 11.0292 10.5555 11.3385L11.043 13.1583C11.1145 13.425 10.9562 13.6992 10.6895 13.7707C10.4227 13.8421 10.1486 13.6838 10.0771 13.4171L9.58084 11.5649C9.07012 11.6537 8.54243 11.7001 8.00006 11.7001C7.45768 11.7001 6.92998 11.6537 6.41926 11.5648L5.92303 13.4171C5.85157 13.6838 5.5774 13.8421 5.31067 13.7707C5.04393 13.6992 4.88563 13.4251 4.95709 13.1583L5.44465 11.3385C4.38688 11.0292 3.41606 10.5316 2.55569 9.88485L1.18805 11.2525C0.99279 11.4478 0.676208 11.4478 0.480946 11.2525C0.285684 11.0572 0.285684 10.7407 0.480946 10.5454L1.78641 9.23992C1.14563 8.64275 0.582431 7.95527 0.109394 7.19842C-0.0369621 6.96425 0.0342237 6.65577 0.268392 6.50942C0.50256 6.36306 0.811035 6.43425 0.957391 6.66842C1.47084 7.48993 2.09795 8.21656 2.81931 8.81865C2.83035 8.82706 2.84112 8.83599 2.85158 8.84544C4.2599 10.0091 6.02362 10.7001 8.00006 10.7001C11.0079 10.7001 13.5231 9.09978 15.0427 6.66842C15.1891 6.43425 15.4976 6.36306 15.7317 6.50942Z" fill="black" fill-opacity="0.6"/>
</svg>
