<svg width="16" height="16" viewBox="0 0 16 16" fill="none" xmlns="http://www.w3.org/2000/svg">
<path fill-rule="evenodd" clip-rule="evenodd" d="M7.99999 11.7667C5.10282 11.7667 2.66271 10.282 1.1291 8.00007C2.66271 5.71808 5.10282 4.2334 7.99999 4.2334C10.8972 4.2334 13.3373 5.71808 14.8709 8.00007C13.3373 10.282 10.8972 11.7667 7.99999 11.7667ZM7.99999 3.2334C4.60785 3.2334 1.78972 5.04644 0.109325 7.73508C0.00799137 7.89721 0.00799179 8.10294 0.109327 8.26508C1.78972 10.9537 4.60785 12.7667 7.99999 12.7667C11.3921 12.7667 14.2103 10.9537 15.8907 8.26508C15.992 8.10294 15.992 7.89721 15.8907 7.73508C14.2103 5.04644 11.3921 3.2334 7.99999 3.2334ZM7.99999 10.1334C9.1782 10.1334 10.1333 9.17827 10.1333 8.00006C10.1333 6.82186 9.1782 5.86673 7.99999 5.86673C6.82178 5.86673 5.86666 6.82186 5.86666 8.00006C5.86666 9.17827 6.82178 10.1334 7.99999 10.1334Z" fill="black" fill-opacity="0.6"/>
</svg>
